<svg xmlns="http://www.w3.org/2000/svg" viewBox="0 0 24 24"><path d="M23.12,4.94a3.16,3.16,0,0,0-2.27-.88H9.09a.94.94,0,1,0,0,1.87H21a1.11,1.11,0,0,1,.91.45,1.16,1.16,0,0,1,.2,1l-2,7.17a1.16,1.16,0,0,1-1.11.84H9.63a1.16,1.16,0,0,1-1.11-.84L5,2.19A3,3,0,0,0,2.09,0H.94a.94.94,0,1,0,0,1.87H2.09a1.15,1.15,0,0,1,1.1.83L6.73,15.07a3,3,0,0,0,2.9,2.18H19a3,3,0,0,0,2.91-2.2l2-7.16A3,3,0,0,0,23.12,4.94Z" transform="translate(0)" fill="#010101"/><path d="M9.1,24a2.77,2.77,0,1,1,2.77-2.77A2.77,2.77,0,0,1,9.1,24Zm0-3.74a1,1,0,1,0,1,1A1,1,0,0,0,9.1,20.26Z" transform="translate(0)" fill="#010101"/><path d="M19.73,24a2.77,2.77,0,1,1,2.77-2.77A2.78,2.78,0,0,1,19.73,24Zm0-3.74a1,1,0,1,0,1,1A1,1,0,0,0,19.73,20.26Z" transform="translate(0)" fill="#010101"/></svg>